<mxfile host="app.diagrams.net" modified="2024-01-31T01:49:47.963Z" agent="Mozilla/5.0 (Windows NT 10.0; Win64; x64) AppleWebKit/537.36 (KHTML, like Gecko) Chrome/121.0.0.0 Safari/537.36" etag="8o7SA1umuOszqXCtFNcY" version="23.0.2" type="device">
  <diagram name="Page-1" id="oQcHawtIjYt-g5rg-Fd0">
    <mxGraphModel dx="2074" dy="1132" grid="1" gridSize="10" guides="1" tooltips="1" connect="1" arrows="1" fold="1" page="1" pageScale="1" pageWidth="850" pageHeight="1100" math="0" shadow="0">
      <root>
        <mxCell id="0" />
        <mxCell id="1" parent="0" />
        <mxCell id="N0_5tuu3xduNNEHNnR8j-5" value="Base Screen" style="text;html=1;align=center;verticalAlign=middle;resizable=0;points=[];autosize=1;strokeColor=none;fillColor=none;" parent="1" vertex="1">
          <mxGeometry x="180" y="270" width="90" height="30" as="geometry" />
        </mxCell>
        <mxCell id="g-EDZau7kIYntVTFksty-2" value="Detailed Answer&lt;br&gt;Random Answer here" style="rounded=0;whiteSpace=wrap;html=1;" vertex="1" parent="1">
          <mxGeometry x="610" y="420" width="160" height="110" as="geometry" />
        </mxCell>
        <mxCell id="g-EDZau7kIYntVTFksty-4" value="Modal Screen" style="text;html=1;align=center;verticalAlign=middle;resizable=0;points=[];autosize=1;strokeColor=none;fillColor=none;" vertex="1" parent="1">
          <mxGeometry x="640" y="270" width="100" height="30" as="geometry" />
        </mxCell>
        <mxCell id="g-EDZau7kIYntVTFksty-6" value="8 Ball GIF Image Here&lt;br&gt;&lt;br&gt;&lt;br&gt;&lt;br&gt;&lt;br&gt;&lt;br&gt;&lt;br&gt;" style="rounded=0;whiteSpace=wrap;html=1;" vertex="1" parent="1">
          <mxGeometry x="100" y="330" width="295" height="690" as="geometry" />
        </mxCell>
        <mxCell id="g-EDZau7kIYntVTFksty-7" value="Type Question Here" style="rounded=1;whiteSpace=wrap;html=1;" vertex="1" parent="1">
          <mxGeometry x="187.5" y="700" width="120" height="60" as="geometry" />
        </mxCell>
        <mxCell id="g-EDZau7kIYntVTFksty-8" value="Ask Jaden Fisher&#39;s Mysterious 8 Ball" style="rounded=1;whiteSpace=wrap;html=1;" vertex="1" parent="1">
          <mxGeometry x="132.5" y="780" width="230" height="60" as="geometry" />
        </mxCell>
        <mxCell id="g-EDZau7kIYntVTFksty-9" value="Answer appears here" style="text;html=1;align=center;verticalAlign=middle;resizable=0;points=[];autosize=1;strokeColor=none;fillColor=none;" vertex="1" parent="1">
          <mxGeometry x="175" y="870" width="140" height="30" as="geometry" />
        </mxCell>
      </root>
    </mxGraphModel>
  </diagram>
</mxfile>
